# xmcd
#
# Track frame offsets: 
#        150
#        13760
#        29980
#        44219
#        59897
#        76739
#        93015
#        109507
#        128127
#        142471
#        157157
#        172476
#        191029
#        205067
#        219552
#        233587
#        246608
#        261415
#        275301
#        288985
#        306526
#
# Disc length: 4299 seconds
#
# Revision: 2
# Processed by: cddbd v1.5.2PL0 Copyright (c) Steve Scherf et al.
# Submitted via: ExactAudioCopy v1.1
#
DISCID=5910c915
DTITLE=Various Artist - Kneipenhits - die Kölsche Vol. 07 - CD 2
DYEAR=2007
DGENRE=Kölsch
TTITLE0=Höhner - Wenn nicht jetzt, wann dann?
TTITLE1=Nic - Einen Stern (der Deinen Namen trägt) 
TTITLE2=Markus Becker - Mallorca Cowboys - Das rote Pferd
TTITLE3=Peter Wackel - Ü30 (Express Spezial Version)
TTITLE4=Helene Fischer - Und morgen früh küss ich dich wach
TTITLE5=Martin Mendes - Du hast mich zum letzten Mal belogen
TTITLE6=Wolfgang Petry - Weiß der Geier
TTITLE7=Mickie Krause - Oh, wie ist das schön
TTITLE8=Drei Colonias - Chris Tuxxi - Halt's Maul, sei still (ich geh h
TTITLE8=eim, wann ich will)
TTITLE9=Bernd Stelter - Mahatma
TTITLE10=Rheinländer - Oh, Kölle am Rhing (Oh Champs Elysees)
TTITLE11=Stefan Knittler - Knittler - Kumm, loss mer singe
TTITLE12=Häckenjecks - Bütz mich (ich bin bützbereit)
TTITLE13=Schmackes - Fastelover
TTITLE14=Labbese - Wat immer du wells
TTITLE15=Günter Misenich - Arme Sau
TTITLE16=Martin Schopps - Hee kütt der Pittermaan
TTITLE17=Rabaue - Schokolädchen (Kölsche Version)
TTITLE18=Cöllner - Die Winzerin vom Rhein
TTITLE19=Frank - Ne Stään 
TTITLE20=Marie Luise Nikuta - Uns Kulturkamelle
EXTD=
EXTT0=
EXTT1=
EXTT2=
EXTT3=
EXTT4=
EXTT5=
EXTT6=
EXTT7=
EXTT8=
EXTT9=
EXTT10=
EXTT11=
EXTT12=
EXTT13=
EXTT14=
EXTT15=
EXTT16=
EXTT17=
EXTT18=
EXTT19=
EXTT20=
PLAYORDER=
